<svg id="Ebene_1" data-name="Ebene 1" xmlns="http://www.w3.org/2000/svg" xmlns:xlink="http://www.w3.org/1999/xlink" viewBox="0 0 2500 1000"><defs><style>.cls-1{fill:url(#Unbenannter_Verlauf_5);}.cls-2{fill:url(#Unbenannter_Verlauf_5-2);}.cls-3{fill:url(#Unbenannter_Verlauf_5-3);}.cls-4{fill:url(#Unbenannter_Verlauf_5-4);}.cls-5{fill:url(#Unbenannter_Verlauf_5-5);}</style><linearGradient id="Unbenannter_Verlauf_5" x1="-268.22" y1="992.92" x2="-209.68" y2="992.92" gradientTransform="matrix(42.05, 0, 0, -41.13, 11300.47, 41391.2)" gradientUnits="userSpaceOnUse"><stop offset="0" stop-color="#3eace5"/><stop offset="0.2" stop-color="#56bbd0"/><stop offset="1" stop-color="#ffe732"/></linearGradient><linearGradient id="Unbenannter_Verlauf_5-2" x1="-271.18" y1="992.92" x2="-207.63" y2="992.92" gradientTransform="matrix(38.73, 0, 0, -41.13, 10523.85, 41393.84)" xlink:href="#Unbenannter_Verlauf_5"/><linearGradient id="Unbenannter_Verlauf_5-3" x1="-270.59" y1="996.43" x2="-211.97" y2="996.43" gradientTransform="matrix(41.99, 0, 0, -57.28, 11382.78, 57545.54)" xlink:href="#Unbenannter_Verlauf_5"/><linearGradient id="Unbenannter_Verlauf_5-4" x1="-275.68" y1="992.92" x2="-206.89" y2="992.92" gradientTransform="matrix(35.79, 0, 0, -41.14, 9887.33, 41404.41)" xlink:href="#Unbenannter_Verlauf_5"/><linearGradient id="Unbenannter_Verlauf_5-5" x1="-272.67" y1="992.92" x2="-214.14" y2="992.92" gradientTransform="matrix(42.05, 0, 0, -41.12, 11487, 41378.77)" xlink:href="#Unbenannter_Verlauf_5"/></defs><g id="Gruppe_312" data-name="Gruppe 312"><g id="Gruppe_182" data-name="Gruppe 182"><path id="Pfad_253" data-name="Pfad 253" class="cls-1" d="M352,504.36q0-46.53-18.84-62.7t-73.75-16.11H53.78V331.12H259.36q54.93,0,76,2a207,207,0,0,1,42.31,8.59q100.58,38.12,95.7,182.09v249H217.24a750.3,750.3,0,0,1-95-4,112.77,112.77,0,0,1-46.3-17.29q-54-36.33-54-109.43a148.29,148.29,0,0,1,21.48-79.5,108.11,108.11,0,0,1,56.49-47.18q31-11.05,103.23-11.07Zm0,94.36H211.5l-20.41-.44a47.26,47.26,0,0,0-32.93,11.08A38.12,38.12,0,0,0,146,639a32.68,32.68,0,0,0,14.84,30.57,105.17,105.17,0,0,0,50.73,8.86H352Z"/><path id="Pfad_254" data-name="Pfad 254" class="cls-2" d="M862.58,678.47V331.12H984V772.85H744.72a325.93,325.93,0,0,1-80.19-7.52,119.06,119.06,0,0,1-50.08-27.93Q568,695.31,567.94,602.72V331.12H689.33v284a66,66,0,0,0,15.51,46.51,55.44,55.44,0,0,0,43,16.83Z"/><path id="Pfad_255" data-name="Pfad 255" class="cls-3" d="M1199.74,331.12H1307.4a262.82,262.82,0,0,1,115.18,21.71,178.63,178.63,0,0,1,87.29,91.71A257.89,257.89,0,0,1,1529.36,546q0,134.28-97.46,194.49A195,195,0,0,1,1368.75,766a481.84,481.84,0,0,1-92.82,6.87H1078.34V157.57h121.4Zm0,94.38v253h89.93q57.6,0,85.94-35.46a146.38,146.38,0,0,0,29.69-93.46q0-124.05-115.65-124.05Z"/><path id="Pfad_256" data-name="Pfad 256" class="cls-4" d="M1976.77,504.36v94.36h-250.1q3.54,43.42,28.14,61.59t79.49,18.15h142.47v94.37H1821a324.9,324.9,0,0,1-85.74-9.31,186.79,186.79,0,0,1-62.69-31.9q-80.2-62-80.2-185.19a234.17,234.17,0,0,1,42.53-140,165.49,165.49,0,0,1,70-58,278.52,278.52,0,0,1,107.21-17.29h164.65V425.5H1821q-49.63,0-69.83,16.83t-24.59,62Z"/><path id="Pfad_257" data-name="Pfad 257" class="cls-5" d="M2483,331.12H2349.63l-92.5,128.35-92.49-128.35H2031.29L2190.47,552,2031.29,772.84h133.35l92.51-128.36,92.5,128.36H2483L2323.85,552Z"/></g></g></svg>